# xmcd
#
# Track frame offsets: 
#        150
#        20900
#        38625
#        52677
#        70985
#        88425
#        105282
#        127782
#        150600
#        178575
#        198012
#        217500
#        231515
#        250327
#        268335
#        288900
#        309510
#
# Disc length: 4644 seconds
#
# Revision: 3
# Processed by: cddbd v1.5.2PL0 Copyright (c) Steve Scherf et al.
# Submitted via: ExactAudioCopyFreeDBPlugin 1.0
#
DISCID=e4122211
DTITLE=Jeffrey Osborne - Ultimate Collection
DYEAR=1999
DGENRE=R&B
TTITLE0=Love Ballad [L.T.D. Featuring Jeffrey Osborne]
TTITLE1=Holding On (When The Love Is Gone) [L.T.D. Featuring Jeffrey O
TTITLE1=sborne]
TTITLE2=We Both Deserve Each Other's Love [L.T.D. Featuring Jeffrey Os
TTITLE2=borne]
TTITLE3=On The Wings Of Love
TTITLE4=Don't You Get So Mad
TTITLE5=I Really Don't Need No Light
TTITLE6=Stay With Me Tonight
TTITLE7=She's On The Left
TTITLE8=Plane Love [12" Mix]
TTITLE9=You Should Be Mine (The Woo Woo Song)
TTITLE10=We're Going All The Way
TTITLE11=The Last Time I Made Love [Joyce Kennedy and Jeffrey Osborne]
TTITLE12=Don't Stop
TTITLE13=The Borderlines
TTITLE14=Love Power [Dionne Warwick and Jeffrey Osborne]
TTITLE15=Only Human
TTITLE16=(Every Time I Turn Around) Back In Love Again [12" Mix] [L.T.
TTITLE16=D. Featuring Jeffrey Osborne]
EXTD=YEAR: 1999
EXTT0=L.T.D. Feat. Jeffrey Osborne
EXTT1=L.T.D. Feat. Jeffrey Osborne
EXTT2=L.T.D. Feat. Jeffrey Osborne
EXTT3=
EXTT4=
EXTT5=
EXTT6=
EXTT7=
EXTT8=
EXTT9=
EXTT10=
EXTT11=Joyce Kennedy and Jeffrey Osborne
EXTT12=
EXTT13=
EXTT14=Dionne Warwick and Jeffrey Osborne
EXTT15=
EXTT16=L.T.D. Feat. Jeffrey Osborne
PLAYORDER=
